<svg width="204" height="48" viewBox="0 0 204 48" fill="none" xmlns="http://www.w3.org/2000/svg">
<path d="M35.8177 36.8043C35.3172 37.8411 34.2674 38.5 33.1161 38.5H16.8085C14.5892 38.5 13.1382 36.1739 14.1141 34.1807L25.3765 11.1807C25.8802 10.1521 26.9256 9.5 28.0709 9.5L44.2195 9.5C46.4315 9.5 47.8829 11.8122 46.9212 13.8042L35.8177 36.8043Z" fill="#444CE7"/>
<path opacity="0.5" d="M6.87039 26.7399C7.92153 29.0424 11.176 29.0886 12.2921 26.8169L18.6758 13.8228C19.6552 11.8294 18.2042 9.5 15.9832 9.5L3.66739 9.5C1.4834 9.5 0.0313419 11.7591 0.938336 13.7459L6.87039 26.7399Z" fill="#444CE7"/>
<path d="M51.1508 18.4V17.536H51.4148L53.4308 17.584C54.5988 17.6 55.8548 17.6 57.1988 17.584L59.5268 17.536H59.8388V18.4V19.264H58.8308H57.8228L59.9348 24.232C61.3428 27.576 62.0468 29.24 62.0468 29.224L66.2708 19.312C66.2708 19.28 65.9428 19.264 65.2868 19.264H64.2788V18.4V17.536H64.5188L66.2948 17.584C67.3188 17.6 68.2548 17.6 69.1028 17.584C70.0788 17.552 70.5748 17.536 70.5908 17.536H70.7828V18.4V19.264H69.5588H68.3108L65.2388 26.536C63.1588 31.4 62.1108 33.848 62.0948 33.88C62.0148 34.008 61.8868 34.104 61.7108 34.168C61.5508 34.216 61.1268 34.224 60.4388 34.192C60.3268 34.192 60.2548 34.184 60.2228 34.168C60.0468 34.104 59.9188 34.008 59.8388 33.88C59.8228 33.848 58.7748 31.4 56.6948 26.536L53.6228 19.264H52.3748H51.1508V18.4ZM74.8182 17.344C74.8502 17.328 74.9942 17.32 75.2502 17.32C75.5222 17.352 75.6982 17.376 75.7782 17.392C76.4022 17.584 76.8502 17.952 77.1222 18.496C77.2662 18.8 77.3382 19.096 77.3382 19.384C77.3382 19.688 77.2662 19.984 77.1222 20.272C76.8502 20.832 76.4022 21.208 75.7782 21.4C75.6342 21.432 75.4342 21.448 75.1782 21.448C74.9062 21.448 74.7062 21.432 74.5782 21.4C73.9382 21.208 73.4822 20.832 73.2102 20.272C73.0822 20.016 73.0182 19.72 73.0182 19.384C73.0182 19.16 73.0262 19 73.0422 18.904C73.1222 18.616 73.2662 18.344 73.4742 18.088C73.8102 17.688 74.2582 17.44 74.8182 17.344ZM74.6502 23.296C76.2502 23.232 77.0182 23.2 76.9542 23.2H77.0982V27.736V32.272H77.8422H78.5862V33.136V34H78.3702L76.8342 33.952C75.9542 33.936 75.0422 33.936 74.0982 33.952L72.4662 34H72.2502V33.136V32.272H73.0902H73.9062V28.984C73.9062 26.76 73.8982 25.616 73.8822 25.552C73.8182 25.36 73.7142 25.248 73.5702 25.216C73.3462 25.152 73.0262 25.12 72.6102 25.12H72.3222V24.256V23.392H72.3942L74.6502 23.296ZM85.4342 23.152L86.8982 23.176C89.2662 23.448 90.8422 24.536 91.6262 26.44C91.6742 26.552 91.7222 26.672 91.7702 26.8C91.9622 27.376 92.0662 27.968 92.0822 28.576C92.1142 29.856 91.7942 30.96 91.1222 31.888C90.7702 32.416 90.2902 32.856 89.6822 33.208C89.2822 33.48 88.7302 33.712 88.0262 33.904C87.4502 34.048 86.7622 34.12 85.9622 34.12C85.1622 34.12 84.4742 34.048 83.8982 33.904C83.1942 33.712 82.6422 33.48 82.2422 33.208C81.6342 32.856 81.1542 32.416 80.8022 31.888C80.3862 31.296 80.0982 30.608 79.9382 29.824C79.6502 28.272 79.9222 26.856 80.7542 25.576C80.8502 25.4 80.9622 25.24 81.0902 25.096C82.0182 23.992 83.3462 23.352 85.0742 23.176C85.1702 23.16 85.2902 23.152 85.4342 23.152ZM86.6822 24.664C86.2982 24.6 85.9062 24.584 85.5062 24.616C84.8822 24.712 84.4262 24.904 84.1382 25.192C83.8182 25.48 83.6262 25.96 83.5622 26.632C83.5302 26.968 83.5142 27.464 83.5142 28.12C83.4982 29.816 83.5782 30.912 83.7542 31.408C83.9782 31.984 84.4982 32.36 85.3142 32.536C85.6822 32.6 86.1142 32.6 86.6102 32.536C87.1062 32.44 87.4902 32.256 87.7622 31.984C88.0822 31.68 88.2742 31.16 88.3382 30.424C88.3542 30.248 88.3702 30.048 88.3862 29.824L88.3622 26.824C88.3622 26.776 88.3622 26.744 88.3622 26.728C88.2822 25.992 88.0902 25.48 87.7862 25.192C87.5302 24.936 87.1622 24.76 86.6822 24.664ZM95.9509 23.296C97.5189 23.232 98.2789 23.2 98.2309 23.2H98.3749V24.088V24.976L98.5669 24.784C98.9669 24.368 99.4469 24.032 100.007 23.776C100.471 23.52 101.015 23.344 101.639 23.248C102.039 23.184 102.591 23.176 103.295 23.224C103.359 23.24 103.415 23.248 103.463 23.248C104.695 23.392 105.527 23.912 105.959 24.808C106.055 25 106.143 25.296 106.223 25.696C106.255 25.872 106.279 27.016 106.295 29.128V32.272H107.135H107.951V33.136V34H107.735L106.055 33.952C105.095 33.936 104.135 33.936 103.175 33.952C102.055 33.984 101.503 34 101.519 34H101.303V33.136V32.272H102.143H102.959V29.272C102.959 27.192 102.951 26.104 102.935 26.008C102.855 25.192 102.511 24.744 101.903 24.664C101.791 24.664 101.663 24.664 101.519 24.664C100.751 24.712 100.095 25.008 99.5509 25.552C99.1669 25.936 98.9109 26.36 98.7829 26.824C98.6869 27.096 98.6389 27.784 98.6389 28.888C98.6389 29.08 98.6389 29.416 98.6389 29.896V32.272H99.4789H100.295V33.136V34H100.079L98.3989 33.952C97.4389 33.936 96.4789 33.936 95.5189 33.952C94.3989 33.984 93.8469 34 93.8629 34H93.6469V33.136V32.272H94.4869H95.3029V28.96C95.3029 26.752 95.2869 25.608 95.2549 25.528C95.2069 25.368 95.1029 25.264 94.9429 25.216C94.7189 25.152 94.3909 25.12 93.9589 25.12H93.6469V24.256V23.392H93.7189C93.6389 23.392 94.3829 23.36 95.9509 23.296ZM111.615 17.344C111.647 17.328 111.791 17.32 112.047 17.32C112.319 17.352 112.495 17.376 112.575 17.392C113.199 17.584 113.647 17.952 113.919 18.496C114.063 18.8 114.135 19.096 114.135 19.384C114.135 19.688 114.063 19.984 113.919 20.272C113.647 20.832 113.199 21.208 112.575 21.4C112.431 21.432 112.231 21.448 111.975 21.448C111.703 21.448 111.503 21.432 111.375 21.4C110.735 21.208 110.279 20.832 110.007 20.272C109.879 20.016 109.815 19.72 109.815 19.384C109.815 19.16 109.823 19 109.839 18.904C109.919 18.616 110.063 18.344 110.271 18.088C110.607 17.688 111.055 17.44 111.615 17.344ZM111.447 23.296C113.047 23.232 113.815 23.2 113.751 23.2H113.895V27.736V32.272H114.639H115.383V33.136V34H115.167L113.631 33.952C112.751 33.936 111.839 33.936 110.895 33.952L109.263 34H109.047V33.136V32.272H109.887H110.703V28.984C110.703 26.76 110.695 25.616 110.679 25.552C110.615 25.36 110.511 25.248 110.367 25.216C110.143 25.152 109.823 25.12 109.407 25.12H109.119V24.256V23.392H109.191L111.447 23.296ZM116.471 24.208V23.344H116.663L118.127 23.392C118.959 23.408 119.855 23.408 120.815 23.392L122.495 23.344H122.711V24.208V25.072H122.447H122.183L122.807 25.864L123.431 26.656C123.447 26.656 123.671 26.392 124.103 25.864L124.751 25.072H124.391H124.031V24.208V23.344H124.223L125.687 23.392C126.535 23.408 127.319 23.408 128.039 23.392L129.311 23.344H129.479V24.208V25.072H128.255H127.007L125.783 26.56L124.559 28.072C124.559 28.104 125.103 28.808 126.191 30.184L127.823 32.272H128.879H129.959V33.136V34H129.767L128.303 33.952C127.471 33.936 126.575 33.936 125.615 33.952L123.935 34H123.719V33.136V32.272H123.983L124.247 32.248L123.479 31.264L122.711 30.28L122.591 30.424L121.079 32.248C121.079 32.264 121.199 32.272 121.439 32.272H121.799V33.136V34H121.583L120.119 33.952C119.287 33.936 118.511 33.936 117.791 33.952L116.519 34H116.351V33.136V32.272H117.575H118.823L120.167 30.64C121.079 29.52 121.543 28.952 121.559 28.936L121.607 28.888L120.119 26.992L118.631 25.072H117.551H116.471V24.208Z" fill="black"/>
</svg>
